Coordinates
version=1
nRows=49
nColumns=12
inDegrees=yes

Units are S.I. units (second, meters, Newtons, ...)
Angles are in degrees

endheader
time	SC_y	SC_z	SC_x	AC_y	AC_z	AC_x	GH_y	GH_z	GH_yy	EL_x	PS_y
       0.0              -39.14          1.264          21.81          45.91          -15.1         -9.919         -133.2          55.22         -116.1          66.73          144.7
   0.04286              -39.14          1.263          21.81          45.91         -15.11         -9.918         -133.1          55.21         -116.1          66.73          144.7
   0.08572              -39.13          1.262          21.81          45.91         -15.11         -9.917         -133.1           55.2         -116.1          66.74          144.7
    0.1286              -39.13          1.261          21.81          45.91         -15.11         -9.916         -133.1          55.19         -116.1          66.74          144.7
    0.1714              -39.13           1.26          21.81          45.92         -15.11         -9.915         -133.0          55.18         -116.1          66.75          144.7
    0.2143              -39.13          1.259          21.81          45.92         -15.11         -9.913         -133.0          55.17         -116.1          66.76          144.7
    0.2572              -39.13          1.258          21.82          45.93         -15.11         -9.912         -133.0          55.15         -116.1          66.77          144.7
       0.3              -39.12          1.257          21.82          45.93         -15.11         -9.911         -132.9          55.14         -116.1          66.77          144.6
    0.3429              -39.12          1.256          21.82          45.93         -15.11         -9.909         -132.9          55.13         -116.1          66.78          144.6
    0.3857              -39.12          1.255          21.82          45.94         -15.11         -9.908         -132.8          55.11         -116.1          66.79          144.6
    0.4286              -39.11          1.253          21.82          45.94         -15.11         -9.906         -132.8           55.1         -116.1           66.8          144.6
    0.4715              -39.11          1.252          21.82          45.95         -15.11         -9.904         -132.7          55.08         -116.2          66.81          144.6
    0.5143              -39.11           1.25          21.83          45.96         -15.12         -9.902         -132.6          55.06         -116.2          66.82          144.6
    0.5572               -39.1          1.249          21.83          45.96         -15.12           -9.9         -132.6          55.04         -116.2          66.83          144.6
       0.6               -39.1          1.247          21.83          45.97         -15.12         -9.898         -132.5          55.02         -116.2          66.85          144.5
    0.6429              -39.09          1.245          21.83          45.98         -15.12         -9.895         -132.4          54.99         -116.2          66.86          144.5
    0.6858              -39.09          1.243          21.83          45.99         -15.12         -9.893         -132.3          54.97         -116.2          66.88          144.5
    0.7286              -39.08           1.24          21.84           46.0         -15.12          -9.89         -132.2          54.94         -116.2           66.9          144.5
    0.7715              -39.08          1.238          21.84          46.01         -15.13         -9.886         -132.1          54.91         -116.2          66.91          144.4
    0.8143              -39.07          1.235          21.84          46.02         -15.13         -9.883         -132.0          54.88         -116.3          66.93          144.4
    0.8572              -39.06          1.232          21.85          46.03         -15.13         -9.879         -131.9          54.84         -116.3          66.96          144.4
       0.9              -39.05          1.228          21.85          46.04         -15.13         -9.875         -131.8           54.8         -116.3          66.98          144.3
    0.9429              -39.04          1.225          21.86          46.06         -15.14          -9.87         -131.6          54.75         -116.3          67.01          144.3
    0.9858              -39.03           1.22          21.86          46.07         -15.14         -9.865         -131.4           54.7         -116.4          67.04          144.3
     1.029              -39.02          1.216          21.87          46.09         -15.14         -9.859         -131.3          54.65         -116.4          67.07          144.2
     1.071              -39.01           1.21          21.87          46.11         -15.15         -9.852         -131.1          54.59         -116.4          67.11          144.2
     1.114               -39.0          1.205          21.88          46.13         -15.15         -9.845         -130.8          54.52         -116.5          67.15          144.1
     1.157              -38.98          1.198          21.89          46.16         -15.16         -9.837         -130.6          54.44         -116.5           67.2          144.0
       1.2              -38.96          1.191           21.9          46.19         -15.17         -9.828         -130.3          54.35         -116.5          67.25          143.9
     1.243              -38.94          1.182          21.91          46.22         -15.17         -9.817         -129.9          54.25         -116.6          67.31          143.9
     1.286              -38.92          1.173          21.92          46.26         -15.18         -9.805         -129.5          54.14         -116.7          67.38          143.8
     1.329              -38.89          1.162          21.93           46.3         -15.19         -9.792         -129.1          54.01         -116.7          67.46          143.6
     1.372              -38.86          1.149          21.95          46.35          -15.2         -9.776         -128.6          53.86         -116.8          67.55          143.5
     1.414              -38.83          1.134          21.96          46.41         -15.21         -9.757         -128.0          53.68         -116.9          67.66          143.4
     1.457              -38.79          1.117          21.98          46.47         -15.23         -9.736         -127.3          53.48         -117.0          67.78          143.2
       1.5              -38.74          1.096          22.01          46.55         -15.24          -9.71         -126.5          53.24         -117.1          67.93          143.0
     1.543              -38.68          1.072          22.04          46.65         -15.26          -9.68         -125.5          52.95         -117.3           68.1          142.7
     1.586              -38.61          1.043          22.07          46.76         -15.29         -9.644         -124.4          52.61         -117.5          68.31          142.4
     1.629              -38.53          1.008          22.11           46.9         -15.32           -9.6         -123.0          52.19         -117.7          68.56          142.0
     1.672              -38.42         0.9652          22.16          47.06         -15.35         -9.546         -121.3          51.69         -118.0          68.87          141.6
     1.714               -38.3         0.9123          22.23          47.27          -15.4          -9.48         -119.2          51.06         -118.3          69.25          141.0
     1.757              -38.14         0.8462           22.3          47.53         -15.45         -9.398         -116.5          50.28         -118.7          69.73          140.3
       1.8              -37.94          0.763           22.4          47.85         -15.52         -9.294         -113.2          49.29         -119.3          70.33          139.5
     1.843              -37.68         0.6573          22.53          48.26         -15.61         -9.162         -109.0          48.04         -119.9          71.09          138.3
     1.886              -37.36         0.5219          22.69          48.78         -15.72         -8.993         -103.6          46.44         -120.8          72.06          136.9
     1.929              -36.94         0.3482          22.89          49.46         -15.87         -8.777         -96.64          44.39         -121.9          73.31          135.1
     1.972              -36.41         0.1263          23.16          50.32         -16.06           -8.5         -87.78          41.76         -123.3          74.91          132.8
     2.014              -35.74        -0.1526          23.49           51.4         -16.29         -8.152         -76.65          38.46         -125.1          76.91          129.8
     2.057              -34.93        -0.4926          23.89          52.72         -16.57         -7.728         -63.08          34.44         -127.3          79.36          126.2
